<svg xmlns:xlink="http://www.w3.org/1999/xlink" xmlns="http://www.w3.org/2000/svg" width="48" height="48" version="1.1"  viewBox="0 0 1050 1050" xml:space="preserve">
<style type="text/css">
	.st0{fill:#164989;}
	.st1{fill:#FFFFFF;}
	.st2{fill:#253B80;}
</style>
<g>
	<path class="st0" d="M709.5,583.7c0,122.7-79.5,222.2-177.7,222.2s-177.6-99.5-177.6-222.2s79.5-222.1,177.7-222.1   S709.6,461.1,709.5,583.7L709.5,583.7z"/>
	<path class="st1" d="M531.9,790.4c-89.5,0-162.2-92.6-162.2-206.4s72.8-206.3,162.2-206.3S694.2,470.2,694.2,584   S621.4,790.5,531.9,790.4L531.9,790.4L531.9,790.4z M531.9,387.2c-84.2,0.1-152.6,88.3-152.6,196.8s68.5,196.8,152.6,196.8   S684.5,692.5,684.5,584S616,387.3,531.9,387.2L531.9,387.2L531.9,387.2z"/>
	<g>
		<path class="st1" d="M579.5,443v0.8c-3.8,1.5-8,2.7-12.1,3.8c-1.2,0-2.7,0.4-2.7,1.5v0.7c5.6,3.8,11.7,8.7,17.7,11.7    c0-4.9-0.4-10.2-0.4-15.5l0.8-0.4c13.3,7.2,25,14.8,38.3,22.3v1.2c-6.5,2.7-13.3,4.6-19,8c-12.9-6.5-25.4-15.1-37.1-23.5    c-9.1-6.8-18.9-14-27.7-21.6c-0.4-1.2,0.8-1.9,1.2-2.7c0-6.5,1.2-12.5,1.5-18.9l2.2,1.2L579.5,443L579.5,443z"/>
		<path class="st1" d="M587.5,431.6c11.4,9.9,20.1,19.4,30.7,30.7c-19.4-9.5-37.9-20.4-54.1-36c-6.1-5.3-12.1-10.2-18.2-16h1.2    L587.5,431.6L587.5,431.6z"/>
		<path class="st1" d="M527.6,438.4c2.2,3.8,4.1,9.5,8.7,10.6c0.7,0.7,0.7,1.5,0.4,2.2c-1.2,0.4-1.5,1.9-0.7,3    c3.8,1.2,9.1,1.5,10.6,5.6c-0.7,4.2,4.1,2.2,6.5,3.4c14.4,4.2,24.2,16,36.8,22.8c1.2,1.5,1.5,3.8,1.5,5.6    c-0.8,1.5-2.2,0.4-3.4,0.8c0.4,3-0.4,5.6-3.4,6.8c-3.8,1.5-7.5,0.4-11.4,3c-3.4,0-7.6-3-9.9,0.4c-0.4,1.5,0,3,1.5,3    c2.7,0.4,5.3,0.4,6.8,2.7c0,2.2,0,5.6-1.9,7.2c-0.8,0.7-2.6,1.2-2.6,2.2c-0.4,0.8,0.4,0.8,0.4,1.2c7.6,0.4,8-13.6,16.3-8    c3.8,6.8,6.1,14.8,7.5,22.8c2.2,1.2,3.8-1.5,6,0c3.8,4.9,3.4,11.7,7.2,16.7c0,2.7-6.8,3-2.3,5.3c2.3,0.4,4.2-2.7,6.8-0.8    c9.1,10.2,25.8,15.5,26.5,32.2c6.5,30.3-4.9,58.7-20.8,81.5c-9.9,16.3-17.4,35.2-32.6,47c-9.1,5.3-19.7,9.1-30.7,11.4    c-14.4,4.2-30.3,4.2-45.9,2.7c-6-4.6-4.9-13.6-5.6-21.2c0-8.3,10.2-4.6,15.1-6.8c15.5-1.9,31.1-7.6,42-17.8c1.2-0.8,3.4-0.8,4.6,0    c2.2,1.5,1.5,6.8,4.9,4.6c3.8-4.1-0.7-8.3-0.4-12.9c0.8-1.2,1.9,0,3,0c1.9,1.9,1.5,5.3,4.6,6.1c1.5,0,3-1.5,3.4-3    c0.4-1.9,0-4.2-1.9-5.3c-1.9-2.2-6.1-1.2-7.2-4.1c0.7-11.7,6.5-21.6,10.9-31.8c6.1-13.3,13.3-25.8,22-37.1l-0.4-0.4    c-6.8,3-10.6,11-15.1,17c-7.6,12.1-14.4,25.4-20.4,38.6c-1.2,0.7-1.5,2.7-3,2.7c-0.8-4.6,0-9.5,0.4-14    c6.1-13.6,15.9-27.7,25.4-39.4c2.6-6.1,8.3-10.6,12.5-15.1c4.9-4.6,10.9-9.5,18.2-11.7c0-0.4,0.7-1.5-0.4-1.5    c-8,0-13.6,5.6-19.4,9.9c-17,14-29.9,32.2-40.9,51.5c-3.8,9.5-4.6,20.1-8.3,29.6c-8.7,2.2-12.5-7.6-20.1-9.1    c-5.6-3.8-14-7.5-11.4-17c4.1-18.2,24.3-22.3,37.6-31.1c1.9-1.9,0-5.7,2.6-6.8c12.1-2.2,21.2-10.6,27.7-20.4    c-1.5-4.1,2.7-6.1,0.7-9.9c0.4-0.8,0.7-2.2,0.7-3.4c-1.2-2.7-1.5-5.6-4.6-6.8c-5.3-0.8-10.2,1.5-15.6,0.7    c-0.7-1.2,0.4-4.1-1.9-4.6c-2.7,0.4-2.7,3-4.9,3.8c-5.6,3-10.6,8.3-13.6,13.3c-6.1-2.2-11,2.7-16.3,4.6c-6.5,5.3-17.7,3.8-25,1.5    c-3.4-1.5-1.9-6.1-1.9-9.5c1.5-6.1,4.1-12.5,9.9-15.5c9.1-2.2,17.4-5.6,27.2-6.1c2.3,1.5,1.2,7.2,4.9,5.3c0.7-5.3-2.2-12.1,4.1-14    c10.2-1.5,21.6-1.2,31.1-4.9c0.4-0.4,0-0.7,0-1.2c-1.5-2.2-4.1,0-6.8-0.4c-6.8,1.2-14,2.2-21.6,1.9c0-1.2-0.7-0.7-1.2-1.5    c-3.8-1.2-5.6,2.2-8.7,3c-4.6,2.2-11.7,3.4-16.7,0.7c-4.9-2.7,0.4-9.9-4.6-12.5c-0.8-1.5,0.7-2.7,1.5-3.4c1.9-0.4,3.8-0.8,4.9-2.7    c0.4-1.2,0-1.9-0.4-2.2c-3,0.7-6.5,0.7-9.1,0c-1.2-1.9,0.7-5.6-2.2-6.5c-1.9-0.4-5.3,0.7-6-2.2c0.4-4.6,2.2-8.7,3.4-13.6    c1.2,0,3.4,0,3.8,1.9c0.4,1.5-0.4,4.1,1.9,4.9c2.2-3,4.6-6.8,9.1-7.2c0.7-0.7,1.2-1.5,1.2-2.2c-3.4-1.9-8.7,0.4-11.4-3    c-0.4-0.7-1.5-1.5-0.7-2.7c2.7-2.2,5.6-2.6,8.7-4.1c-1.5-2.7-4.9-0.7-7.2-0.7c-3-0.7-5.6,5.6-7.6,0.7c0.4-4.6-4.1-9.1-1.5-13.6    c1.9,0,3,1.2,4.6,1.9c-0.4,0.7,0,1.5-0.4,2.7l0.7,0.4c6.1-2.6,11.4-4.9,17.8-6.1c1.5,1.2-0.8,3.4,1.2,4.6    c9.9-1.9,20.9-0.7,28.1,6.5c2.2-1.9-1.2-4.1-1.2-6.5c-5.6-4.9-14.3-4.6-22-6.1c-0.4-1.5-1.9-2.2-3.4-2.2c-2.7,0.4-5.6,0.7-8,1.2    c-0.7-1.5-1.9-3.4-0.7-5.3c3.8-0.7,7.5,0.8,10.9,1.5c-0.7-2.7-1.9-6.1-4.9-6.5c-3.4-1.2-5.6,3-8.7,0.4c-1.9,0-3.8,0.4-4.9,1.9    c-0.4,1.9,0,3.8,1.9,4.6c0.8,0,1.9,0,1.5,1.5c-1.2,2.2-4.1,1.2-6.5,1.5c-5.3-1.5-12.9-1.9-14.8-7.5c0-4.1,3.8-6.1,4.9-9.1    c4.2-4.2,4.6-14,12.1-14c3.4-0.4,6.8,0.7,9.5,2.7L527.6,438.4z"/>
		<path class="st1" d="M535.2,437.7c19.4,15.1,39.4,31.1,60.2,42.8c0.7,0.7,1.5,2.2,0.4,3.4c-1.5,1.2-3.4-0.4-4.9-0.7    c-19.7-12.1-40.2-25.8-58-40.5c-1.2-1.2-1.2-3-0.7-4.2C532.9,437.8,534.1,437.8,535.2,437.7L535.2,437.7z"/>
		<path class="st2" d="M556.4,484.6c0.7,0.8,2.2,1.2,1.5,2.3c-1.2,0.7-3,0.4-4.1,1.5c3,6.1,10.2,8,16.3,9.9c0.4,1.2-0.7,1.2-1.5,1.5    c-8.3-0.7-16.7-4.1-20.4-12.1c-5.3-1.5-11-4.1-13.6-8.3c-0.4-0.7-0.4-2.2,0.8-2.7c5.6,5.3,13.3,8.7,21.2,8L556.4,484.6z"/>
		<path class="st2" d="M581,489.9c1.9,0,3,0.4,3,1.9s-0.7,2.3-1.9,2.7c-8.3,1.2-14-3.8-20.4-7.2l0.4-1.2    C568.2,488.4,574.6,491.8,581,489.9z"/>
		<path class="st1" d="M607.9,489.9c0,8.3-0.4,17.5-7.5,22.3c-4.6,1.9-9.5,0.4-12.9-2.2v-1.5c2.7,0.7,6.8,1.9,9.5-0.4    c0-1.2,0-2.2-1.5-2.2c-3.4,1.5-6.5-0.8-9.9-1.2c-0.4-0.7-0.4-1.2-0.4-2.2c1.9-0.8,4.6-0.8,5.6-3.4c-1.2-4.9,5.6-4.9,5.3-9.5    c1.5-1.9,4.2-3.8,7.2-2.6C605.6,487,607.1,488.1,607.9,489.9L607.9,489.9z"/>
		<path class="st1" d="M486.7,497.5c1.9-1.2,4.9-0.4,6.8,0c0,0.4,0.4,0.4,0.4,0.4c2.2-0.7,4.6,1.2,6.8,1.9    c4.6,3.4,4.2,10.2,2.7,15.1c-0.7,0-1.9,0.4-2.2,1.2c2.2,2.7,3.4,7.5,1.9,10.6c-3,1.2-4.6,4.2-4.9,7.2c1.2,1.2,3-1.2,4.9,0    c5.3,5.3,2.6,14.4,0.8,20.8c-3,5.3-6.1,9.9-12.5,10.2c-9.1-0.7-17.8-3.4-22.8-10.6c-2.2-2.7-0.4-7.2-3.8-9.1    c-2.2,0.4-3,3.4-5.7,2.6c-2.7-1.2-1.5-6.1-5.3-5.6c-2.7,4.6,6.8,8.3,0.4,11.4c-4.1,1.2-7.2-2.7-11.4-2.2    c-4.9-4.6-4.9-12.5-3.8-18.9c7.6-9.9,2.2-26.5,16-32.6c5.3-3.4,11.4-8,18.9-6C478,495.3,483,494.5,486.7,497.5z"/>
		<path class="st2" d="M499.2,508.1l-0.4,4.9c-4.9-0.8-2.2,9.5-8.8,6.8l-1.5-1.9c0.7-1.9,2.6,0,3.8-0.7c2.7-3,1.9-7.6,4.2-10.6    C498,506.3,498.7,507,499.2,508.1L499.2,508.1z"/>
		<path class="st2" d="M456.3,519.1c0.7,3,0.7,8-1.5,10.6c-2.6-0.7-0.7-4.6-2.6-6.1c-3.8,2.2-1.2,8.3-4.9,11c-0.7,0-1.5-0.4-1.9-1.5    c3.4-4.1,1.2-11.4,4.9-16C453.4,516.4,453.4,521.7,456.3,519.1L456.3,519.1z"/>
		<path class="st2" d="M482.2,518.3l1.2,0.4c0,2.2-1.5,3.8-3.4,4.9c-2.2,0.4-4.1-1.5-5.3,1.9c-0.8,2.2-0.4,5.3-2.7,6.5    c-1.5-0.7-3.8-2.2-4.2,0.4l-0.4,8c-0.7,0.4-2.2,0.4-2.6-0.7c-0.8-5.3,0.4-11.4,3.4-14.8c1.5,1.5,3.8,0.7,4.1-1.2    c1.2-1.9,2.7-6,5.7-6.5C478.4,519.1,481.1,519.4,482.2,518.3z"/>
		<path class="st2" d="M491.7,531.2c0.4,1.9,0.7,4.2-1.5,4.9h-9.5c-0.4-3.4,6.1-3,3.4-6.5l-2.2,0.8c-0.4-1.5,1.2-1.2,1.5-2.2    C486.4,528.3,490.9,527.1,491.7,531.2L491.7,531.2z"/>
		<path class="st2" d="M498.5,543.3c1.2,1.9-1.5,2.2-2.7,3c-1.5,0.4-1.5-1.5-2.2-2.2C494.3,542.6,497,543.8,498.5,543.3L498.5,543.3    z"/>
		<path class="st2" d="M497,553.6c-0.4,1.2-1.9,1.9-3.4,1.5c-1.5-0.7-3-2.2-4.9-1.9v-1.5c3,1.9,4.6-1.9,7.2-1.2    c0.8-0.4,1.9-1.2,2.7-0.4C498.5,551.3,497,552,497,553.6z"/>
		<path class="st1" d="M474.2,568c3,2.7,11-0.7,10.2,5.6c4.6,3,9.1,5.6,13.6,8.3l14,11.4h1.9c1.2-1.5-3-3.8,0-4.6    c10.6,1.9,19.4-5.3,28.4-8.7c2.7-0.7,4.6,1.2,5.6,3c3,7.2,4.1,15.1,4.1,23.1c-3.4,1.9-6,4.1-10.2,4.9c-4.2-2.7-8,1.2-11.4,2.7    c-10.6,6.5-23.1,13.6-36.4,7.2c-11.4,7.5-20.1-6.5-31.1-7.2c-1.5,1.2-1.9,3.4-1.5,5.3c1.9,1.2,4.9,0.7,7.2,1.9    c6.1,3.4,10.2,10.9,19.4,9.9c0,0.4,0.4,0.4,0.7,0.4v1.2c-3.8,2.2-9.1,6.1-10.2,10.2c0.7,1.5,2.6,1.2,3.8,0.4    c6.8-3.4,12.1-9.9,20.1-10.2c3.4,3.4-3.4,6.5-1.5,10.6c4.2,3.8,6.5,9.5,4.6,14.8c-2.6,3.4-7.5,4.6-8.7,8.7    c-0.4,1.5,0.4,3.4,2.2,4.2c6.5,0,7.2-12.1,16-8c6.8,3,15.1,1.9,20.4,8c2.7,3.8,4.6,8.7,6.5,12.9c-1.2,3-5.7,3.8-8.3,4.9    c-13.3,5.6-28.4,6.8-41.7,11.7c-12.5,0.7-22.8-8.3-34.5-1.9c-7.2,1.2-14.8-1.9-20.4-5.6c-5.7-4.1-3-13.3-9.5-17    c-9.9-25,1.2-50.7,5.6-74.7c5.6-10.2,3-25,14.4-31.8c4.9-2.2,8.7-6.5,11.4-10.6c5.3-0.4,6.5,6.1,11.4,6.8l3.8,2.2L474.2,568z"/>
		<path class="st1" d="M581.8,568c-0.8,1.9,0.7,2.7,1.2,3.8c-0.4,3.4-0.4,7.2-1.9,10.2c-4.9,6-12.5,11.7-21.2,12.1    c-4.9-0.8-6.5-6.5-8.7-9.9c0.8-6.5,3.4-13.6,10.2-16c1.9-1.5,3.4,0.7,5.7,0c4.9,0,8.7-3,13.6-1.9L581.8,568L581.8,568z"/>
		<path class="st1" d="M490.9,712.8c3.4,3.8,3.4,10.2,1.9,15.1c-8,3-16.7,5.3-25.4,6.1c-3.8,0-8,0-10.2-2.7c-0.7-3.8-6.1-3-6.1-7.5    c-0.7-1.9-3.8-1.5-4.1-3.4c1.2-3-1.9-4.6-2.7-6.8c0.4-6,8.3-5.3,12.5-7.2c4.9-6.8,14-2.2,20.4-1.2    C482.2,707.5,487.1,709.8,490.9,712.8z"/>
		<path class="st1" d="M611,736.2c-3,2.7-5.6,5.6-9.1,7.2c-5.6-5.6-12.1-12.1-15.5-19.4c0-1.2,0-2.2,1.5-2.7    C598.5,720.6,605.3,729,611,736.2L611,736.2z"/>
		<path class="st1" d="M567.8,740.4c2.2,6.1,3.4,12.1,5.6,18.2c-2.7,2.7-7.6,3-11.4,4.9c-32.6,9.9-72.3,3.8-97.8-15.9    c1.2-2.7,2.2-5.6,5.3-6.5c4.6-0.4,8.7,2.2,13.3,2.7c0,0,5.6,1.2,8.3,0c3.8,0,6.5-3,9.9-4.1c5.3-0.7,11.4-0.7,16.7-1.2    c9.1,4.2,27.2,1.8,29.2,1.2c1.9-0.6,10.6-5.3,16.3-7.2c4.6,0,2.6,5.3,4.6,8V740.4z"/>
		<path class="st1" d="M587.8,735.1c4.1,4.1,8,6.1,9.9,11.4c-0.7,1.5-2.7,2.7-4.6,3.4c-3-1.5-4.6-6.5-8-5.6c-1.2,3.4,3,5.3,2.2,9.1    c-2.7,1.5-6.1,3-9.1,3.4c-3.4-5.3-4.9-11.4-6.1-17.4c0.8-7.2,9.5-1.5,13.3-4.9L587.8,735.1L587.8,735.1z"/>
	</g>
</g>
</svg>